<svg width="11" height="18" viewBox="0 0 11 18" fill="none" xmlns="http://www.w3.org/2000/svg">
<path d="M9.46967 17.0303C9.76256 17.3232 10.2374 17.3232 10.5303 17.0303C10.8232 16.7374 10.8232 16.2626 10.5303 15.9697L9.46967 17.0303ZM2 8.5L1.46967 7.96967L0.93934 8.5L1.46967 9.03033L2 8.5ZM10.0303 1.53033C10.3232 1.23744 10.3232 0.762563 10.0303 0.46967C9.73744 0.176777 9.26256 0.176777 8.96967 0.46967L10.0303 1.53033ZM10.5303 15.9697L2.53033 7.96967L1.46967 9.03033L9.46967 17.0303L10.5303 15.9697ZM2.53033 9.03033L10.0303 1.53033L8.96967 0.46967L1.46967 7.96967L2.53033 9.03033Z" fill="#333438"/>
</svg>
