<svg width="206" height="42" viewBox="0 0 206 42" fill="none" xmlns="http://www.w3.org/2000/svg">
<path fill-rule="evenodd" clip-rule="evenodd" d="M38.9178 41.8208C34.9867 40.9137 31.1161 37.8897 29.4832 34.4122C28.1829 31.6605 28.0619 30.3299 28.1829 21.3489C28.2736 13.396 28.3039 12.8215 28.9691 11.1885C30.844 6.47123 35.1379 3.53803 40.6112 3.17516C47.5965 2.72158 53.3419 6.77363 54.7027 13.0936C54.9446 14.2125 55.0353 17.4481 54.9748 23.2237C54.8539 31.2674 54.8236 31.7512 54.1584 33.4446C52.7674 36.9221 49.4108 40.1274 46.024 41.1858C43.6956 41.9418 40.6414 42.2139 38.9178 41.8208ZM38.2526 39.4319C35.017 38.3131 32.5978 36.1661 31.1766 33.0817C30.4811 31.5698 30.3601 30.965 30.2996 27.4572L30.2089 23.5261L30.9044 24.4031C31.2673 24.9171 32.2652 26.1267 33.1119 27.0944C38.3433 33.2934 40.0064 35.9544 40.3391 38.7062C40.5205 40.1879 40.4902 40.1879 38.2526 39.4319ZM42.7582 39.6739C42.4256 39.0993 43.7863 35.2892 44.9959 33.4446C45.6611 32.4164 47.1429 30.5114 48.292 29.2111C49.441 27.9108 50.8925 26.1569 51.5275 25.3405C52.1626 24.4938 52.7371 23.7378 52.7976 23.6773C52.8883 23.5866 52.9186 25.28 52.8581 27.4572C52.7674 31.0254 52.6766 31.5395 51.8904 33.2631C50.9832 35.2287 48.6851 37.7083 46.901 38.5852C45.2983 39.4319 42.9396 40.0367 42.7582 39.6739ZM39.4621 31.7512C39.0388 31.0557 37.5268 29.1204 36.1056 27.4572C31.6906 22.3468 30.2392 19.595 30.2392 16.4502C30.2392 12.4888 34.14 9.79754 37.4663 11.4909C38.8271 12.1562 39.7645 13.8798 40.2483 16.4804L40.6112 18.5669L38.7364 20.4115L36.8918 22.2863L38.7061 24.1914L40.5205 26.0965L40.3693 29.574L40.2181 33.0515L39.4621 31.7512ZM33.5655 17.8109C32.6583 16.7828 32.749 15.0894 33.7469 14.3032C35.5008 12.9424 37.799 13.9706 37.799 16.1478C37.799 18.2645 34.9262 19.3834 33.5655 17.8109ZM42.6372 29.4832V25.915L44.4516 24.1007L46.2659 22.3166L44.3911 20.4417L42.5465 18.5669L42.8791 16.6618C43.0606 15.6035 43.5444 14.152 43.9073 13.4262C46.2055 8.95085 52.8883 11.0676 52.8883 16.2687C52.9186 19.5346 51.4368 22.4375 47.4755 26.9432C46.2962 28.3039 44.7237 30.2392 43.998 31.2371L42.6372 33.0515V29.4832ZM45.9635 17.7202C45.1168 16.6316 45.1773 15.3313 46.0845 14.4241C47.6569 12.8517 50.197 13.9101 50.197 16.1478C50.197 18.325 47.2336 19.4136 45.9635 17.7202ZM40.6414 23.1028L39.8855 22.2561L40.7624 21.4396L41.6091 20.6232L42.4256 21.5303L43.242 22.4678L42.3348 23.2237L41.4277 23.9797L40.6414 23.1028ZM40.2181 10.9769C40.2181 10.8257 39.5528 10.3116 38.7969 9.85802C37.2849 8.98109 34.9565 8.73917 33.1119 9.25324L32.2047 9.49515L33.2631 8.40654C34.5029 7.10626 37.4059 5.62454 39.2202 5.32214L40.5205 5.14071V8.19487C40.5205 9.88826 40.4298 11.2793 40.3693 11.2793C40.2786 11.2793 40.2181 11.1281 40.2181 10.9769ZM42.6372 8.19487V5.14071L43.9073 5.32214C45.7216 5.62454 48.6246 7.10626 49.8946 8.40654L50.953 9.49515L50.0458 9.25324C47.5965 8.58798 44.6935 9.19276 43.242 10.6745C42.6372 11.2793 42.6372 11.2793 42.6372 8.19487Z" fill="#020202"/>
<path fill-rule="evenodd" clip-rule="evenodd" d="M64.6514 34.382C61.5065 33.4748 59.1176 31.2371 58.15 28.2737C57.3637 25.8545 57.3637 20.2905 58.15 17.8714C58.9967 15.2708 60.5691 13.4262 63.0185 12.1864C65.0445 11.1281 65.1957 11.1281 68.5825 11.1281C71.8181 11.1281 72.2414 11.1885 73.8139 11.9445C75.8096 12.9424 76.8075 14.2427 77.0192 16.2082C77.3216 18.9298 75.5375 20.9558 72.8764 20.9255C70.3364 20.9255 68.8849 19.5648 68.8849 17.2061C68.8849 15.4523 69.6409 14.152 71.1831 13.2146L72.3624 12.5191L71.2738 12.3074C68.8244 11.8538 66.9798 13.7286 66.1633 17.4178C65.6493 19.7765 65.6493 24.6752 66.1633 26.1569C67.6148 30.3602 72.5136 31.1766 75.6585 27.7898C76.2935 27.1548 76.5959 26.9734 76.8378 27.2153C77.3216 27.6991 75.8701 30.5416 74.3279 32.1443C73.6627 32.8398 72.5136 33.6562 71.7878 33.9586C69.913 34.7751 66.6169 34.9565 64.6514 34.382Z" fill="#020202"/>
<path fill-rule="evenodd" clip-rule="evenodd" d="M84.4278 34.4122C83.1578 33.9283 81.797 32.4769 81.4946 31.2673C81.3736 30.8137 81.1922 26.429 81.1317 21.4698L80.9805 12.4888H79.4988C78.38 12.4888 78.0171 12.3678 78.0171 12.0352C78.0171 11.6723 78.38 11.5816 79.529 11.5816H81.041V9.01126V6.47117L82.7646 6.28973C83.7323 6.16877 85.335 5.83614 86.3329 5.50351C87.3308 5.17088 88.3589 4.80801 88.6613 4.71729C89.1451 4.5661 89.2056 4.83825 89.2056 8.0436V11.5816H91.3223C92.9855 11.5816 93.4391 11.6723 93.4391 12.0352C93.4391 12.3678 92.9855 12.4888 91.3223 12.4888H89.2056V21.9839C89.2056 31.2975 89.2056 31.5092 89.8104 31.8418C90.3244 32.114 90.6873 32.0535 91.6852 31.5394C93.5903 30.5113 93.8624 31.2068 92.169 32.8397C90.1732 34.7448 86.9679 35.4101 84.4278 34.4122Z" fill="#020202"/>
<path fill-rule="evenodd" clip-rule="evenodd" d="M99.5474 34.4121C97.9447 33.7771 96.8863 32.4768 96.4932 30.6322C96.2816 29.7553 96.1606 25.9754 96.1606 21.8629C96.1606 17.7201 96.0094 14.2728 95.828 13.8193C95.6768 13.3657 95.1325 12.8818 94.6184 12.6702C92.7133 11.9444 93.6205 11.6723 98.3378 11.4606C100.878 11.3699 103.237 11.2489 103.569 11.1884C104.144 11.128 104.174 11.3094 104.234 21.2279C104.325 30.3298 104.386 31.3882 104.839 31.9023C105.595 32.749 107.561 32.4466 108.468 31.3882C109.133 30.602 109.163 30.4508 109.163 22.3165C109.163 14.424 109.133 14.0309 108.528 13.2749C108.166 12.8214 107.621 12.4887 107.319 12.4887C106.986 12.4887 106.744 12.2771 106.744 12.0654C106.744 11.7327 107.772 11.6118 111.492 11.4908C114.123 11.4001 116.481 11.2187 116.784 11.0977C117.268 10.9163 117.328 11.4908 117.328 21.0464C117.328 27.9712 117.419 31.4185 117.661 31.9628C117.842 32.3559 118.386 32.8397 118.87 32.9909C119.354 33.1723 119.747 33.505 119.747 33.7166C119.747 34.0493 119.052 34.14 116.542 34.1702C114.758 34.1702 112.399 34.2912 111.25 34.4121L109.163 34.6238V33.3235V32.0535L108.105 32.9909C106.14 34.6843 102.027 35.3798 99.5474 34.4121Z" fill="#020202"/>
<path fill-rule="evenodd" clip-rule="evenodd" d="M172.726 34.2005C170.368 33.2328 169.097 30.723 169.672 28.1526C170.247 25.6125 171.698 24.4332 176.385 22.7398C177.867 22.1955 179.53 21.3488 180.105 20.865C181.102 19.988 181.133 19.9578 181.133 17.2665C181.133 12.6399 179.863 11.1884 176.657 12.0654C175.75 12.3073 175.811 12.5492 176.869 13.154C178.109 13.91 178.895 15.9965 178.411 17.3875C177.958 18.7785 177.02 19.5949 175.417 20.0183C174.329 20.3207 173.966 20.2904 173.029 19.8368C171.547 19.0809 170.791 17.9923 170.791 16.5105C170.73 13.0028 174.268 10.9465 180.377 10.9768C185.185 10.9768 187.876 12.3073 188.632 15.0591C188.844 15.7848 188.965 19.353 188.995 24.1308C188.995 28.576 189.116 32.1744 189.267 32.4466C189.509 32.8095 189.66 32.8095 190.204 32.4768C190.718 32.1744 190.96 32.1744 191.202 32.4163C192.109 33.3235 188.057 34.7145 185.245 34.4726C183.068 34.2609 182.161 33.6864 181.223 31.872C181.193 31.8116 180.619 32.2047 179.984 32.7187C177.958 34.3214 174.692 35.0169 172.726 34.2005ZM178.109 30.3298C177.625 29.846 177.504 29.3017 177.504 27.8805C177.504 25.7335 177.958 24.6751 179.802 22.6793L181.133 21.2581V25.794C181.133 29.9972 181.072 30.2996 180.528 30.602C179.59 31.0858 178.774 30.9951 178.109 30.3298Z" fill="black"/>
<path fill-rule="evenodd" clip-rule="evenodd" d="M0 33.6563C0 33.2027 0.181435 33.0515 0.72574 33.0515C2.29818 33.0515 2.41913 32.4467 2.41913 23.2842C2.41913 14.031 2.2377 12.9727 0.75598 12.6098C0.332631 12.4888 0 12.2469 0 12.0352C0 11.7631 1.20957 11.6119 4.59636 11.4909C7.13645 11.4002 9.43462 11.2188 9.73702 11.0978C10.1906 10.9164 10.2813 11.0978 10.2813 12.3376V13.7891L11.0978 13.0331C12.7912 11.4305 13.8193 11.1281 17.1154 11.1281C19.7462 11.1281 20.3207 11.1885 21.0465 11.7328C23.3144 13.4262 23.5866 14.787 23.5866 24.5543C23.5866 31.2976 23.6168 32.0838 24.1006 32.5072C24.403 32.7491 24.9171 33.0212 25.2497 33.0817C25.5823 33.1422 25.8545 33.3841 25.8545 33.6563C25.8545 34.0191 24.9171 34.1098 19.7159 34.1098C14.0007 34.1401 13.6076 34.1098 13.6076 33.5958C13.6076 33.2329 13.8193 33.0515 14.1822 33.0515C14.5148 33.0515 14.9079 32.7793 15.0894 32.4467C15.301 32.0838 15.3917 28.5761 15.422 23.1028C15.422 13.275 15.422 13.396 13.3052 13.396C11.884 13.396 10.6744 14.3939 10.4325 15.8454C10.3116 16.3897 10.2813 20.2905 10.3116 24.4635C10.4325 32.4164 10.5232 33.0515 11.8235 33.0515C12.1864 33.0515 12.3981 33.2631 12.3981 33.6563C12.3981 34.2308 12.1864 34.261 6.19903 34.261C0.181435 34.261 0 34.2308 0 33.6563Z" fill="#020202"/>
<path fill-rule="evenodd" clip-rule="evenodd" d="M121.32 33.7167C121.38 33.4143 121.713 33.1421 122.076 33.0816C123.588 32.87 123.678 32.3559 123.678 23.1632C123.678 18.1435 123.527 14.3031 123.346 13.8193C123.194 13.3657 122.65 12.8819 122.136 12.6702C120.231 11.9445 121.138 11.6723 125.855 11.4606C128.396 11.3699 130.754 11.249 131.087 11.1885C131.571 11.128 131.692 11.3397 131.843 12.2771L131.994 13.4262L132.75 12.6097C133.748 11.4909 135.139 10.9768 136.983 10.9768C139.826 10.9768 141.217 12.4283 141.217 15.422C141.217 18.2644 138.979 20.109 136.228 19.595C133.173 19.0204 132.327 15.6941 134.625 13.154C134.988 12.7912 135.169 12.4888 135.048 12.4888C134.443 12.4888 133.022 13.4564 132.448 14.2426C131.843 15.0893 131.843 15.5127 131.843 23.2842C131.843 32.5373 131.843 32.6281 134.111 32.9909C134.927 33.1421 135.32 33.3538 135.381 33.7167C135.441 34.2005 134.927 34.261 128.365 34.261C121.743 34.261 121.259 34.2005 121.32 33.7167Z" fill="#020202"/>
<path fill-rule="evenodd" clip-rule="evenodd" d="M142.245 33.9586C142.003 33.505 142.366 33.0514 143.001 33.0514C143.334 33.0514 143.787 32.8095 144.059 32.5676C144.453 32.1442 144.543 30.8439 144.543 23.012V13.9705L143.787 13.2145C143.364 12.8214 142.82 12.4888 142.578 12.4888C142.306 12.4888 142.124 12.2771 142.124 12.0654C142.124 11.7328 143.152 11.6118 146.872 11.4909C149.503 11.4002 151.861 11.2187 152.164 11.0978C152.617 10.9163 152.708 11.0978 152.708 12.3376V13.7891L153.676 12.8516C155.006 11.5816 156.851 10.9768 159.481 10.9768C162.294 10.9768 164.078 11.7933 164.955 13.5471C165.499 14.6357 165.56 15.5127 165.711 23.3749C165.862 32.6583 165.922 33.0514 167.404 33.0514C167.888 33.0514 168.13 33.2026 168.13 33.5655C168.13 34.0795 167.676 34.1098 161.931 34.1098C156.972 34.1098 155.732 34.0493 155.732 33.7167C155.732 33.505 156.064 33.2026 156.488 33.0212C156.911 32.87 157.365 32.3861 157.546 31.9628C157.697 31.5092 157.818 27.6688 157.818 23.1027C157.818 13.7891 157.788 13.5774 155.792 13.4262C154.704 13.3657 154.371 13.4867 153.585 14.2426L152.708 15.1498V23.4958C152.708 28.697 152.799 32.0838 153.01 32.4466C153.192 32.7793 153.585 33.0514 153.917 33.0514C154.311 33.0514 154.522 33.2328 154.522 33.6562C154.522 34.2307 154.311 34.261 148.474 34.261C144.755 34.261 142.336 34.14 142.245 33.9586Z" fill="black"/>
<path fill-rule="evenodd" clip-rule="evenodd" d="M192.442 33.9586C192.2 33.505 192.563 33.0514 193.198 33.0514C193.531 33.0514 193.984 32.8095 194.256 32.5676C194.68 32.1443 194.74 30.3601 194.74 17.569C194.74 8.67865 194.619 2.84248 194.438 2.50985C194.256 2.20746 193.712 1.81435 193.198 1.63292C191.414 0.997893 192.442 0.695501 196.706 0.544305C199.034 0.483827 201.363 0.332631 201.907 0.211674L202.905 0V15.8453C202.905 32.9607 202.875 32.87 204.477 33.0817C204.84 33.1421 205.173 33.4143 205.233 33.7167C205.294 34.2005 204.84 34.261 198.974 34.261C195.043 34.261 192.533 34.14 192.442 33.9586Z" fill="black"/>
</svg>
