<svg width="485" height="707" viewBox="0 0 485 707" fill="none" xmlns="http://www.w3.org/2000/svg">
<path fill-rule="evenodd" clip-rule="evenodd" d="M194.591 703.74C123.573 687.235 53.6472 632.218 24.1474 568.949C0.656831 518.884 -1.52834 494.677 0.656832 331.278C2.29571 186.584 2.842 176.131 14.8604 146.422C48.7306 60.5964 126.304 7.23036 225.183 0.628382C351.377 -7.6241 455.172 66.0981 479.756 181.083C484.126 201.439 485.765 260.306 484.672 365.388C482.487 511.732 481.941 520.535 469.922 551.344C444.793 614.613 384.154 672.93 322.97 692.186C280.905 705.94 225.729 710.892 194.591 703.74ZM182.572 660.277C124.119 639.92 80.4156 600.859 54.7398 544.742C42.1751 517.234 39.9899 506.23 38.8973 442.411L37.2584 370.89L49.8232 386.844C56.3787 396.197 74.4064 418.204 89.7026 435.809C184.211 548.593 214.257 597.008 220.267 647.073C223.544 674.031 222.998 674.031 182.572 660.277ZM263.97 664.678C257.961 654.225 282.544 584.904 304.396 551.344C316.414 532.638 343.182 497.978 363.942 474.321C384.701 450.664 410.923 418.754 422.395 403.899C433.867 388.495 444.247 374.741 445.339 373.64C446.978 371.99 447.524 402.799 446.432 442.411C444.793 507.331 443.154 516.683 428.95 548.043C412.562 583.804 371.043 628.917 338.812 644.872C309.859 660.277 267.248 671.28 263.97 664.678ZM204.424 520.535C196.776 507.881 169.461 472.67 143.786 442.411C64.0268 349.433 37.8047 299.368 37.8047 242.151C37.8047 170.079 108.277 121.115 168.369 151.924C192.952 164.027 209.887 195.387 218.628 242.701L225.183 280.663L191.313 314.223L157.989 348.333L190.767 382.993L223.544 417.654L220.813 480.923L218.081 544.192L204.424 520.535ZM97.8969 266.908C81.5082 248.203 83.147 217.393 101.175 203.089C132.86 178.332 174.378 197.037 174.378 236.649C174.378 275.161 122.48 295.517 97.8969 266.908ZM261.785 479.272V414.353L294.562 381.343L327.34 348.883L293.47 314.773L260.146 280.663L266.155 246.002C269.433 226.746 278.174 200.338 284.729 187.134C326.247 105.71 446.978 144.222 446.978 238.85C447.524 298.268 420.756 351.084 349.192 433.058C327.886 457.816 299.479 493.026 286.368 511.182L261.785 544.192V479.272ZM321.877 265.258C306.581 245.452 307.673 221.795 324.062 205.29C352.469 176.681 398.358 195.937 398.358 236.649C398.358 276.261 344.821 296.067 321.877 265.258ZM225.729 363.187L212.072 347.783L227.915 332.928L243.211 318.074L257.961 334.579L272.711 351.634L256.322 365.388L239.933 379.142L225.729 363.187ZM218.081 142.571C218.081 139.82 206.063 130.467 192.406 122.215C165.091 106.26 123.026 101.859 89.7026 111.212L73.3138 115.613L92.434 95.807C114.832 72.1499 167.276 45.1918 200.054 39.6901L223.544 36.3891V91.9558C223.544 122.765 221.905 148.073 220.813 148.073C219.174 148.073 218.081 145.322 218.081 142.571ZM261.785 91.9558V36.3891L284.729 39.6901C317.507 45.1918 369.951 72.1499 392.895 95.807L412.015 115.613L395.626 111.212C351.377 99.108 298.933 110.111 272.711 137.069C261.785 148.073 261.785 148.073 261.785 91.9558Z" fill="#804627" fill-opacity="0.03"/>
</svg>
